<svg width="20" height="20" viewBox="0 0 20 20" xmlns="http://www.w3.org/2000/svg"><path d="M11.91 16.59l.608 2.65c.862-.184 1.703-.49 2.48-.898l-3.09-1.753zm7.986-5.302c.105-.938.042-1.855-.19-2.752l-3.088.897 3.278 1.855zm-6.012 3.63c-.462.305-.946.55-1.492.734l3.656 2.08c.4-.286.778-.592 1.135-.94l-3.3-1.875zm2.544-4.363c-.042.53-.147 1.02-.315 1.49l3.13 1.772c.043-.102.085-.204.127-.327.147-.367.252-.713.337-1.08l-3.28-1.855zm-.78 2.466c-.25.43-.545.817-.903 1.163l3.175 1.794c.294-.367.588-.775.82-1.202l-3.09-1.754zM4.427 10.148c0-1.345.483-2.57 1.26-3.567L2.704 3.257C1.84 4.174 1.126 5.275.643 6.54c-1.976 5.177.757 10.927 6.095 12.842 1.47.53 3.006.714 4.477.57l-.924-3.974c-3.258-.082-5.864-2.65-5.864-5.83zm6.012-5.83c.23 0 .44.02.672.04L12.665.26C9.407-.475 6.045.38 3.605 2.4l2.966 3.283c1.05-.857 2.396-1.366 3.868-1.366zm9.31 1.917c-.86-2.406-2.753-4.323-5.19-5.28l-.57-.225-1.596 3.893c1.66.713 2.774 1.692 3.614 3.26L20 6.826l-.252-.59zm-2.92.203c-.674-1.243-1.473-1.957-2.797-2.548l.632-1.55c1.64.774 2.92 2.1 3.678 3.71l-1.513.387z" fill-rule="nonzero" fill="#00D18D"/></svg>