<svg width="20" height="19" viewBox="0 0 20 19" xmlns="http://www.w3.org/2000/svg"><path d="M2.61 16.222c-1.3-1.28-2.203-2.905-2.594-4.677-.04-.173 0-.355.11-.493.11-.14.28-.22.46-.222h3.728c.245 0 .464.15.55.378.475 1.24 1.45 2.23 2.692 2.735 1.243.508 2.643.485 3.868-.06.222-.1.482-.054.655.115l2.65 2.608c.125.125.186.3.165.474-.02.175-.12.33-.27.424-1.852 1.166-4.052 1.674-6.236 1.44-2.185-.232-4.223-1.193-5.778-2.722zm12.014-14.72C11.97-.176 8.654-.467 5.74.72 2.83 1.91.69 4.427.017 7.462c-.04.17 0 .353.11.492.11.14.28.22.46.222h3.727c.246 0 .465-.15.55-.378.476-1.24 1.45-2.23 2.693-2.736 1.243-.507 2.642-.485 3.868.062.223.103.486.058.66-.113L14.73 2.4c.124-.125.186-.3.165-.474-.02-.175-.12-.33-.27-.425zm2.582 14.305c-.458.053-.916-.105-1.242-.428l-2.635-2.61c-.443-.442-.566-1.106-.31-1.673.463-1.015.463-2.177 0-3.193-.254-.566-.132-1.227.31-1.668l2.644-2.61c.326-.322.784-.48 1.243-.428.46.05.874.303 1.123.688C19.424 5.564 20 7.51 20 9.5c0 1.99-.576 3.938-1.66 5.615-.25.39-.668.645-1.134.692zM15.21 9.03c.026.315.026.632 0 .948h2.9c.017-.316.017-.632 0-.95h-2.9zm.807-2.847h1.436c-.137-.326-.295-.643-.472-.95l-.963.95zM14.814 7.37c.094.23.172.464.235.704h2.956c-.05-.32-.12-.638-.207-.95h-2.745l-.24.245zm2.975 4.505c.085-.312.155-.63.206-.95H15.05c-.064.242-.142.48-.235.71l.24.238 2.734.002zm-.337.948h-1.435l.963.95c.178-.307.336-.625.473-.95z" fill-rule="nonzero" fill="#00D18D"/></svg>